PathFileType	4	(X/Y/Z)	P:\Projects\LMB_grand_challenge_database\project_only\opensim\experimental_data\SixthCompetition/DM_ngait_og5_new.trc
DataRate	CameraRate	NumFrames	NumMarkers	Units	OrigDataRate	OrigDataStartFrame	OrigNumFrames
120	120	7	68	mm	120	256	342
Frame#	Time	Sternum			Neck			R_Shoulder			L_Shoulder			Xiphoid			Thoracic			R_Asis			L_Asis			R_Psis			L_Psis			Lumbar			R_Elbow			R_ElbowMedial			R_ShoulderAnterior			R_ShoulderPosterior			R_Wrist			R_Radius			R_Ulna			L_Elbow			L_ElbowMedial			L_ShoulderAnterior			L_ShoulderPosterior			L_Wrist			L_Ulna			L_Radius			L_Thigh_Superior			L_Thigh_Inferior			L_Thigh_Lateral			L_Knee_Lateral			L_Knee_Medial			L_Patella			L_Shank_Superior			L_Shank_Inferior			L_Shank_Lateral			L_Ankle_Lateral			L_Ankle_Medial			R_Thigh_Superior			R_Thigh_Inferior			R_Thigh_Lateral			R_Knee_Lateral			R_Knee_Medial			R_Patella			R_Shank_Superior			R_Shank_Inferior			R_Shank_Lateral			R_Ankle_Lateral			RankleMedial			R_Heel			R_Toe			R_Midfoot_Medial			R_Midfoot_Lateral			R_Hindfoot			R_Midfoot_Superior			R_ToeMedial			R_ToeLateral			L_Heel			L_Toe			L_Midfoot_Medial			L_Midfoot_Lateral			L_Hindfoot			L_Midfoot_Superior			L_ToeMedial			L_ToeLateral			Oglobal			Sacral			Xglobal			Yglobal			Zglobal			
		X1	Y1	Z1	X2	Y2	Z2	X3	Y3	Z3	X4	Y4	Z4	X5	Y5	Z5	X6	Y6	Z6	X7	Y7	Z7	X8	Y8	Z8	X9	Y9	Z9	X10	Y10	Z10	X11	Y11	Z11	X12	Y12	Z12	X13	Y13	Z13	X14	Y14	Z14	X15	Y15	Z15	X16	Y16	Z16	X17	Y17	Z17	X18	Y18	Z18	X19	Y19	Z19	X20	Y20	Z20	X21	Y21	Z21	X22	Y22	Z22	X23	Y23	Z23	X24	Y24	Z24	X25	Y25	Z25	X26	Y26	Z26	X27	Y27	Z27	X28	Y28	Z28	X29	Y29	Z29	X30	Y30	Z30	X31	Y31	Z31	X32	Y32	Z32	X33	Y33	Z33	X34	Y34	Z34	X35	Y35	Z35	X36	Y36	Z36	X37	Y37	Z37	X38	Y38	Z38	X39	Y39	Z39	X40	Y40	Z40	X41	Y41	Z41	X42	Y42	Z42	X43	Y43	Z43	X44	Y44	Z44	X45	Y45	Z45	X46	Y46	Z46	X47	Y47	Z47	X48	Y48	Z48	X49	Y49	Z49	X50	Y50	Z50	X51	Y51	Z51	X52	Y52	Z52	X53	Y53	Z53	X54	Y54	Z54	X55	Y55	Z55	X56	Y56	Z56	X57	Y57	Z57	X58	Y58	Z58	X59	Y59	Z59	X60	Y60	Z60	X61	Y61	Z61	X62	Y62	Z62	X63	Y63	Z63	X64	Y64	Z64	X65	Y65	Z65	X66	Y66	Z66	X67	Y67	Z67	X68	Y68	Z68	

257	3.75	914.096	1462.96	189.565	1067.91	1375.85	171.69	1018.37	1394.48	348.974	968.192	1430.39	9.428739999999999	1083.77	1212.01	166.812	820.27	1274.45	183.571	1012.1	989.972	308.171	1004.26	982.7910000000001	30.74	806.48	1026.06	206.246	804.035	1023.05	127.81	806.418	1074.31	167.016	969.967	1084.03	449.908	-0	0	0	-0	0	0	-0	0	0	1003.47	801.564	438.53	998.025	814.004	393.926	961.9059999999999	816.9930000000001	457.137	978.885	1094.5	-91.2453	-0	0	0	-0	0	0	-0	0	0	1078.15	843.561	-71.7499	1036.77	849.579	-95.8317	1064.55	858.8339999999999	-27.3975	971.248	810.968	-3.52516	1053.86	600.064	10.6459	1079.53	697.953	39.1198	-0	0	0	-0	0	0	1099.04	493.141	56.3982	988.2619999999999	468.851	6.97232	776.511	308.506	25.5271	908.399	355.055	84.8544	-0	0	0	-0	0	0	942.5410000000001	800.6079999999999	328.095	981.313	588.832	276.86	1036.89	719.336	298.252	-0	0	0	-0	0	0	1059.29	510.639	196.487	946.385	397.069	287.609	928.374	191.038	269.026	995.486	312.04	195.129	-0	0	0	-0	0	0	830.525	62.8451	219.004	1130.92	52.6408	208.788	1050.13	29.6407	159.96	1043.73	30.0101	277.055	932.871	29.1924	268.663	993.689	118.802	214.818	1094.45	40.1916	166.485	1092.04	40.2448	258.071	646.159	282.994	90.8943	831.092	51.4495	69.6545	771.52	97.96720000000001	125.788	751.401	107.015	13.4512	678.7380000000001	184.683	29.7541	795.025	195.481	69.4515	796.0839999999999	67.8441	114.432	789.712	68.81440000000001	20.0199	-0	0	0	805.258	1024.55	167.028	-200	0	0	-0	0	200	-0	200	0	
258	3.758333	922.768	1463.84	190.025	1076.43	1376.85	171.068	1028.33	1395.73	348.674	975.215	1431.25	9.46129	1092.32	1212.8	166.248	828.85	1275.3	184.496	1020.83	990.59	308.148	1011.93	983.644	30.6146	814.915	1027.23	207.008	812.144	1024.24	128.436	814.804	1075.49	167.763	982.599	1085.02	450.172	-0	0	0	-0	0	0	-0	0	0	1017.7	802.721	437.405	1011.71	815.723	393.009	976.8630000000001	818.047	456.99	980.287	1095.21	-92.3274	-0	0	0	-0	0	0	-0	0	0	1077.37	843.4109999999999	-74.479	1035.75	849.729	-97.84820000000001	1064.86	858.824	-29.8687	981.343	813.581	-3.22445	1068.05	603.707	9.595980000000001	1091.79	701.929	39.1353	-0	0	0	-0	0	0	1114.83	497.808	55.2399	1005.61	470.986	6.08513	797.3630000000001	305.007	24.4188	928.229	355.485	83.8866	-0	0	0	-0	0	0	951.982	801.434	325.911	985.423	589.067	276.806	1042.89	719.107	298.043	-0	0	0	-0	0	0	1062.32	510.133	196.537	948.5359999999999	397.209	287.571	929.241	191.379	268.993	997.639	312.565	195.716	-0	0	0	-0	0	0	830.606	63.1152	218.916	1131	52.4522	208.841	1050.16	29.4974	159.916	1043.74	29.8723	277.01	932.981	29.2919	268.598	993.9160000000001	118.776	214.766	1094.49	39.9797	166.41	1092.11	40.0604	257.98	667.417	275.91	88.9602	861.052	50.8359	69.4708	798.23	94.9901	125.34	778.599	103.033	12.8412	703.403	178.563	28.4504	819.124	192.972	68.8099	825.894	66.38249999999999	113.847	818.465	66.1948	20.197	-0	0	0	813.529	1025.74	167.722	-200	0	0	-0	0	200	-0	200	0	
259	3.766667	931.3920000000001	1464.72	190.559	1084.9	1377.74	170.599	1037.87	1397	348.313	982.1900000000001	1431.92	9.423349999999999	1100.73	1213.65	165.68	837.354	1276.3	185.436	1029.38	991.126	308.267	1019.89	984.7619999999999	30.6111	823.327	1028.33	207.612	820.338	1025.46	128.881	823.197	1076.65	168.425	995.12	1086	450.393	-0	0	0	-0	0	0	-0	0	0	1032.47	804.215	436.267	1025.64	817.27	392.103	991.824	818.837	457.044	981.481	1095.7	-92.9461	-0	0	0	-0	0	0	-0	0	0	1076.38	843.252	-77.24460000000001	1034.46	850.484	-100.681	1064.81	858.8049999999999	-32.5556	990.63	815.77	-3.66785	1081.78	607.325	8.75891	1103.9	705.862	39.1221	-0	0	0	-0	0	0	1130.57	502.557	54.1515	1022.25	473.031	5.03351	819.965	301.36	21.9846	947.752	355.369	82.59059999999999	-0	0	0	-0	0	0	963.871	800.79	323.131	989.3920000000001	589.385	276.941	1048.9	718.904	297.727	-0	0	0	-0	0	0	1064.63	508.608	196.088	950.85	397.449	287.647	930.11	191.748	269.038	999.984	313.103	196.332	-0	0	0	-0	0	0	830.761	63.4171	218.974	1131.29	52.3747	208.663	1050.27	29.4228	160	1043.84	29.832	277.094	932.934	29.3825	268.678	994.215	118.823	214.826	1094.6	39.8378	166.461	1092.3	40.2259	258.333	689.0599999999999	267.961	86.8887	890.386	49.761	69.9817	826.228	92.221	125.201	806.8339999999999	98.7092	12.56	729.006	171.396	27.1965	843.682	190.533	68.0356	854.578	63.3906	113.342	848.312	63.3672	19.9893	-0	0	0	821.833	1026.89	168.246	-200	0	0	-0	0	200	-0	200	0	
260	3.775	940.0940000000001	1465.53	190.879	1093.36	1378.66	170.045	1047.7	1397.95	348.088	989.172	1432.73	9.3422	1109.18	1214.42	165.367	845.847	1276.97	186.31	1037.97	992.076	308.147	1027.73	985.294	30.7203	831.664	1029.19	207.994	828.478	1026.41	129.415	831.485	1077.55	168.828	1007.47	1086.91	450.722	-0	0	0	-0	0	0	-0	0	0	1047.37	805.771	434.958	1038.67	817.877	390.354	1007.22	819.813	456.396	982.6079999999999	1096.46	-93.6542	-0	0	0	-0	0	0	-0	0	0	1075.37	843.0839999999999	-80.15989999999999	1032.99	850.745	-102.455	1065.01	858.253	-35.135	999.8390000000001	817.668	-4.26413	1095.04	610.992	8.09965	1115.58	709.8150000000001	39.1427	-0	0	0	-0	0	0	1145.69	507.281	53.0957	1039.01	474.856	4.34216	840.198	297.024	21.8822	967.218	355.233	81.6451	-0	0	0	-0	0	0	975.465	800.321	321.212	993.6420000000001	589.534	277.276	1054.6	718.502	297.605	-0	0	0	-0	0	0	1067.95	508.526	196.803	953.028	397.821	287.871	930.856	192.014	269.035	1001.34	312.778	196.247	-0	0	0	-0	0	0	830.662	63.8663	219.361	1132.24	53.5976	209.3	1049.94	29.5356	159.747	1043.8	29.5859	276.857	933.107	29.4975	268.71	994.577	119.008	214.985	1094.64	39.6871	166.502	1092.36	40.0833	258.13	710.923	259.103	84.9491	920.704	48.8545	70.247	854.4880000000001	88.8001	124.365	835.7619999999999	94.5646	11.5724	754.9	164.289	25.629	868.736	187.66	67.3228	882.963	61.5805	114.274	878.423	60.7111	19.8645	-0	0	0	830.071	1027.8	168.704	-200	0	0	-0	0	200	-0	200	0	
261	3.783333	948.487	1466.27	191.306	1101.8	1379.46	169.406	1057.07	1398.6	347.358	996.232	1433.42	9.357609999999999	1117.68	1215.01	164.83	854.337	1277.63	187.055	1046.21	992.234	308.032	1035.39	985.9160000000001	30.6335	839.848	1030.19	208.311	836.444	1027.5	129.759	839.722	1078.6	169.276	1019.85	1087.71	450.64	-0	0	0	-0	0	0	-0	0	0	1062.17	807.307	433.594	1052.39	819.227	389.444	1023.1	821.016	455.632	983.782	1097.14	-94.0035	-0	0	0	-0	0	0	-0	0	0	1074.2	842.97	-82.97320000000001	1031.35	851.163	-104.502	1065.34	858.8390000000001	-37.4793	1008.93	819.3150000000001	-4.94409	1108.05	614.506	7.40286	1127.06	713.569	39.0277	-0	0	0	-0	0	0	1160.51	511.989	52.2962	1055.02	476.846	3.52824	861.456	292.029	21.434	987.227	355.169	80.3805	-0	0	0	-0	0	0	984.704	800.266	320.336	997.587	589.675	277.534	1060.49	718.075	297.361	-0	0	0	-0	0	0	1070.9	507.504	196.775	955.193	397.992	287.999	931.735	192.417	269.21	1002.61	312.119	195.941	-0	0	0	-0	0	0	830.474	64.25360000000001	219.335	1131.7	52.3435	208.769	1049.7	29.611	159.705	1043.52	29.3782	276.812	933.075	29.5775	268.66	994.904	119.193	215.141	1094.7	39.6731	166.603	1092.41	39.9959	258.083	733.297	249.675	83.0329	951.7380000000001	48.3216	70.1446	884.01	86.2375	124.763	865.0890000000001	89.6326	11.906	780.904	155.839	24.8155	894.2	184.749	66.3348	913.444	59.3512	114.168	909.146	58.0822	19.3776	-0	0	0	838.146	1028.85	169.035	-200	0	0	-0	0	200	-0	200	0	
262	3.791667	957.0839999999999	1466.87	191.65	1110.31	1380.27	168.972	1066.57	1399.81	347.137	1003.19	1434.1	9.26285	1126.16	1215.67	164.508	862.854	1278.24	187.569	1054.73	992.596	307.902	1043.21	986.322	30.5933	848.164	1030.81	208.71	844.539	1028.24	130.12	848.025	1079.27	169.702	1032.01	1088.38	450.864	-0	0	0	-0	0	0	-0	0	0	1077.04	808.722	431.877	1066.47	820.595	387.936	1037.03	821.256	455.102	984.717	1097.73	-94.1618	-0	0	0	-0	0	0	-0	0	0	1072.94	842.9299999999999	-86.0501	1029.52	851.4690000000001	-105.944	1065.47	858.755	-40.1813	1018.22	820.835	-5.51334	1120.75	617.8339999999999	7.07704	1138.23	717.157	38.8357	-0	0	0	-0	0	0	1174.96	516.54	51.591	1070.94	478.737	2.9808	882.681	287.658	20.22	1006.96	354.512	79.4272	-0	0	0	-0	0	0	991.085	800.909	321.007	1001.76	589.7859999999999	277.739	1066.39	717.746	297.349	-0	0	0	-0	0	0	1075.13	507.952	197.684	957.53	398.096	288.066	932.773	192.611	269.272	1004.26	312.048	195.96	-0	0	0	-0	0	0	830.532	64.5547	219.318	1131.64	52.114	208.879	1049.69	29.7285	159.535	1043.54	29.214	276.644	933.154	29.5351	268.588	995.187	119.302	215.207	1094.41	39.1683	166.704	1092.44	40.0275	258.311	756.67	239.15	80.90000000000001	983.694	47.8864	69.33069999999999	914.234	82.5235	123.437	895.651	84.9742	10.5002	808.292	148.385	23.6244	920.202	181.376	64.95010000000001	944.342	57.2015	113.419	940.511	55.3052	18.7215	-0	0	0	846.351	1029.53	169.415	-200	0	0	-0	0	200	-0	200	0	
263	3.8	965.611	1467.32	191.917	1118.66	1380.83	168.391	1076.38	1400.34	347.068	1010.3	1434.49	9.176450000000001	1134.48	1216.11	164.009	871.258	1278.71	188.312	1063.1	993.203	307.937	1051.23	986.9299999999999	30.1278	856.431	1031.32	208.907	852.8680000000001	1028.94	130.217	856.222	1079.89	169.718	1044.03	1089	450.75	-0	0	0	-0	0	0	-0	0	0	1092.01	810.2569999999999	430.181	1080.69	821.924	386.656	1052.41	822.197	454.016	986.116	1098.74	-94.3801	-0	0	0	-0	0	0	-0	0	0	1071.56	842.753	-88.8776	1027.61	851.495	-107.466	1065.57	858.644	-42.9323	1027.56	822.349	-6.14258	1132.85	621.039	6.77603	1149.2	720.534	38.7759	-0	0	0	-0	0	0	1188.97	521.057	50.861	1086.24	480.45	2.25543	905.3	282.713	18.2601	1026.02	353.296	78.26300000000001	-0	0	0	-0	0	0	996.114	801.54	322.581	1005.83	589.8680000000001	277.713	1072.88	717.389	297.346	-0	0	0	-0	0	0	1077.67	506.675	197.252	959.898	398.2	288.239	933.5839999999999	192.838	269.415	1006.03	312.075	196.296	-0	0	0	-0	0	0	829.399	65.28870000000001	219.308	1131.79	52.1938	208.947	1048.31	29.3573	159.288	1042.2	28.3693	276.396	933.213	29.5182	268.612	995.441	119.367	215.347	1094.92	39.5799	166.681	1092.56	40.0976	258.385	779.711	228.799	79.3374	1015.76	47.7559	68.35980000000001	944.197	79.599	122.364	925.954	81.29519999999999	9.357390000000001	835.853	139.906	21.7209	946.513	178.464	63.9123	975.77	54.6281	111.836	972.12	53.2501	17.4121	-0	0	0	854.65	1030.13	169.562	-200	0	0	-0	0	200	-0	200	0	
